# xmcd
#
# Track frame offsets:
#	225
#	1527
#	14685
#	26497
#	38500
#	44670
#	63912
#	68085
#	86937
#	95470
#	112677
#	118055
#	129250
#	135550
#	153202
#	163227
#	174405
#	182387
#
# Disc length: 2614 seconds
#
# Revision: 2
# Processed by: cddbd v1.4PL0 Copyright (c) Steve Scherf et al.
# Submitted via: audiograbber 1.81.02
#
DISCID=da0a3312
DTITLE=Geezinslaws - I Wish I Had A Job To Shove
DYEAR=1994
DGENRE=Country
TTITLE0=Introduction
TTITLE1=Because Of Country Music (I've Gone Crazy)
TTITLE2=No Place Like Austin
TTITLE3=I Wish I Had A Job To Shove
TTITLE4=Tastes Like Chicken
TTITLE5=I Love You Period
TTITLE6=Acknowledgements And Introduction
TTITLE7=Play It Backwards
TTITLE8=Running A Little Late
TTITLE9=Paint Me On Velvet
TTITLE10=Son's High Finance
TTITLE11=Monkey Man
TTITLE12=The Lone Ranger And Tonto
TTITLE13=I Feel Like Hank Williams Tonight
TTITLE14=What Is A Wanna Sack Store?
TTITLE15=Self-Made Man
TTITLE16=Son's B-B Gun
TTITLE17=You Wouldn't Put The Shuck On Me
EXTD=
EXTT0=
EXTT1=
EXTT2=
EXTT3=
EXTT4=
EXTT5=
EXTT6=
EXTT7=
EXTT8=
EXTT9=
EXTT10=
EXTT11=
EXTT12=
EXTT13=
EXTT14=
EXTT15=
EXTT16=
EXTT17=
PLAYORDER=
